<mxfile host="app.diagrams.net" modified="2020-08-14T02:18:19.684Z" agent="5.0 (Macintosh; Intel Mac OS X 10_15_5) AppleWebKit/537.36 (KHTML, like Gecko) Chrome/84.0.4147.105 Safari/537.36" etag="43GAjSWOaQaIQJWpNXyj" version="13.6.2" type="github">
  <diagram name="Page-1" id="03018318-947c-dd8e-b7a3-06fadd420f32">
    <mxGraphModel dx="1554" dy="898" grid="1" gridSize="10" guides="1" tooltips="1" connect="1" arrows="1" fold="1" page="1" pageScale="1" pageWidth="1100" pageHeight="850" background="#ffffff" math="0" shadow="0">
      <root>
        <mxCell id="0" />
        <mxCell id="1" parent="0" />
        <mxCell id="677b7b8949515195-1" value="" style="whiteSpace=wrap;html=1;rounded=0;shadow=0;labelBackgroundColor=none;strokeColor=#000000;strokeWidth=1;fillColor=none;fontFamily=Verdana;fontSize=12;fontColor=#000000;align=center;comic=1;" parent="1" vertex="1">
          <mxGeometry x="15" y="30" width="1070" height="810" as="geometry" />
        </mxCell>
        <mxCell id="677b7b8949515195-2" value="Track your calories" style="whiteSpace=wrap;html=1;rounded=0;shadow=0;labelBackgroundColor=none;strokeWidth=1;fontFamily=Verdana;fontSize=28;align=center;comic=1;" parent="1" vertex="1">
          <mxGeometry x="350" y="50" width="350" height="50" as="geometry" />
        </mxCell>
        <mxCell id="677b7b8949515195-3" value="" style="strokeWidth=1;shadow=0;dashed=0;align=center;html=1;shape=mxgraph.mockup.forms.searchBox;strokeColor=#999999;mainText=;strokeColor2=#008cff;fontColor=#666666;fontSize=17;align=left;spacingLeft=3;rounded=0;labelBackgroundColor=none;comic=1;" parent="1" vertex="1">
          <mxGeometry x="260" y="290" width="460" height="60" as="geometry" />
        </mxCell>
        <mxCell id="677b7b8949515195-5" value="&lt;span style=&quot;font-size: 18px&quot;&gt;Login&lt;/span&gt;" style="text;html=1;points=[];align=left;verticalAlign=top;spacingTop=-4;fontSize=14;fontFamily=Verdana" parent="1" vertex="1">
          <mxGeometry x="890" y="40" width="90" height="30" as="geometry" />
        </mxCell>
        <mxCell id="677b7b8949515195-6" value="&lt;font style=&quot;font-size: 18px&quot;&gt;Sign up&lt;/font&gt;" style="text;html=1;points=[];align=left;verticalAlign=top;spacingTop=-4;fontSize=14;fontFamily=Verdana" parent="1" vertex="1">
          <mxGeometry x="970" y="40" width="70" height="40" as="geometry" />
        </mxCell>
        <mxCell id="677b7b8949515195-9" value="" style="line;strokeWidth=1;html=1;rounded=0;shadow=0;labelBackgroundColor=none;fillColor=none;fontFamily=Verdana;fontSize=14;fontColor=#000000;align=center;comic=1;" parent="1" vertex="1">
          <mxGeometry x="20" y="140" width="1060" height="10" as="geometry" />
        </mxCell>
        <mxCell id="677b7b8949515195-10" value="" style="whiteSpace=wrap;html=1;rounded=0;shadow=0;labelBackgroundColor=none;strokeWidth=1;fillColor=none;fontFamily=Verdana;fontSize=12;align=center;comic=1;" parent="1" vertex="1">
          <mxGeometry x="30" y="160" width="1040" height="50" as="geometry" />
        </mxCell>
        <mxCell id="677b7b8949515195-11" value="Calorie Diary" style="text;html=1;points=[];align=left;verticalAlign=top;spacingTop=-4;fontSize=14;fontFamily=Verdana" parent="1" vertex="1">
          <mxGeometry x="160" y="170" width="100" height="30" as="geometry" />
        </mxCell>
        <mxCell id="677b7b8949515195-13" value="Daily tracker&lt;br&gt;" style="text;html=1;points=[];align=left;verticalAlign=top;spacingTop=-4;fontSize=14;fontFamily=Verdana" parent="1" vertex="1">
          <mxGeometry x="491.5" y="170" width="97" height="25" as="geometry" />
        </mxCell>
        <mxCell id="677b7b8949515195-14" value="My account" style="text;html=1;points=[];align=left;verticalAlign=top;spacingTop=-4;fontSize=14;fontFamily=Verdana" parent="1" vertex="1">
          <mxGeometry x="770" y="175" width="90" height="25" as="geometry" />
        </mxCell>
        <mxCell id="677b7b8949515195-15" value="&lt;div style=&quot;text-align: justify&quot;&gt;&lt;br&gt;&lt;/div&gt;" style="whiteSpace=wrap;html=1;rounded=0;shadow=0;labelBackgroundColor=none;strokeWidth=1;fillColor=none;fontFamily=Verdana;fontSize=12;align=center;verticalAlign=top;spacing=10;comic=1;" parent="1" vertex="1">
          <mxGeometry x="1230" y="240" width="500" height="50" as="geometry" />
        </mxCell>
        <mxCell id="677b7b8949515195-25" value="" style="whiteSpace=wrap;html=1;rounded=0;shadow=0;labelBackgroundColor=none;strokeWidth=1;fontFamily=Verdana;fontSize=12;align=center;comic=1;" parent="1" vertex="1">
          <mxGeometry x="140" y="650" width="220" height="170" as="geometry" />
        </mxCell>
        <mxCell id="677b7b8949515195-26" value="" style="whiteSpace=wrap;html=1;rounded=0;shadow=0;labelBackgroundColor=none;strokeWidth=1;fontFamily=Verdana;fontSize=12;align=center;comic=1;" parent="1" vertex="1">
          <mxGeometry x="690" y="427.5" width="230" height="160" as="geometry" />
        </mxCell>
        <mxCell id="677b7b8949515195-42" value="French fries 100kcal" style="text;html=1;points=[];align=left;verticalAlign=top;spacingTop=-4;fontSize=14;fontFamily=Verdana" parent="1" vertex="1">
          <mxGeometry x="160" y="601.25" width="160" height="20" as="geometry" />
        </mxCell>
        <mxCell id="677b7b8949515195-48" value="Here are search result for &quot; &quot;" style="text;html=1;points=[];align=left;verticalAlign=top;spacingTop=-4;fontSize=14;fontFamily=Verdana" parent="1" vertex="1">
          <mxGeometry x="360" y="380" width="250" height="30" as="geometry" />
        </mxCell>
        <mxCell id="iOdEwq1WsNc-iahHYhRR-1" value="&lt;font style=&quot;font-size: 18px&quot;&gt;Search&lt;/font&gt;" style="rounded=1;whiteSpace=wrap;html=1;" vertex="1" parent="1">
          <mxGeometry x="740" y="300" width="100" height="40" as="geometry" />
        </mxCell>
        <mxCell id="iOdEwq1WsNc-iahHYhRR-2" value="" style="whiteSpace=wrap;html=1;rounded=0;shadow=0;labelBackgroundColor=none;strokeWidth=1;fontFamily=Verdana;fontSize=12;align=center;comic=1;" vertex="1" parent="1">
          <mxGeometry x="420" y="425" width="220" height="165" as="geometry" />
        </mxCell>
        <mxCell id="iOdEwq1WsNc-iahHYhRR-3" value="" style="rounded=0;whiteSpace=wrap;html=1;" vertex="1" parent="1">
          <mxGeometry x="415" y="650" width="225" height="170" as="geometry" />
        </mxCell>
        <mxCell id="iOdEwq1WsNc-iahHYhRR-4" value="" style="rounded=0;whiteSpace=wrap;html=1;" vertex="1" parent="1">
          <mxGeometry x="700" y="653" width="230" height="160" as="geometry" />
        </mxCell>
        <mxCell id="iOdEwq1WsNc-iahHYhRR-6" value="&lt;font style=&quot;font-size: 14px&quot;&gt;Crinkle cut french fries&lt;/font&gt;" style="text;html=1;strokeColor=none;fillColor=none;align=center;verticalAlign=middle;whiteSpace=wrap;rounded=0;fontFamily=Verdana;" vertex="1" parent="1">
          <mxGeometry x="421" y="596.25" width="167.5" height="30" as="geometry" />
        </mxCell>
        <mxCell id="iOdEwq1WsNc-iahHYhRR-7" value="The Kroger Co. French Fries" style="text;html=1;strokeColor=none;fillColor=none;align=center;verticalAlign=middle;whiteSpace=wrap;rounded=0;fontFamily=Verdana;fontSize=14;" vertex="1" parent="1">
          <mxGeometry x="730" y="600" width="160" height="30" as="geometry" />
        </mxCell>
        <mxCell id="iOdEwq1WsNc-iahHYhRR-9" value="" style="rounded=0;whiteSpace=wrap;html=1;fontFamily=Verdana;fontSize=14;align=center;" vertex="1" parent="1">
          <mxGeometry x="140" y="425" width="230" height="165" as="geometry" />
        </mxCell>
        <mxCell id="iOdEwq1WsNc-iahHYhRR-10" value="&lt;font style=&quot;font-size: 12px ; font-weight: normal&quot;&gt;Add&lt;/font&gt;" style="strokeWidth=1;shadow=0;dashed=0;align=center;html=1;shape=mxgraph.mockup.buttons.button;strokeColor=#9673a6;mainText=;buttonStyle=round;fontSize=17;fontStyle=1;fillColor=#e1d5e7;whiteSpace=wrap;" vertex="1" parent="1">
          <mxGeometry x="310" y="601.25" width="50" height="22.5" as="geometry" />
        </mxCell>
        <mxCell id="iOdEwq1WsNc-iahHYhRR-11" value="&lt;font style=&quot;font-size: 12px ; font-weight: normal&quot;&gt;Add&lt;/font&gt;" style="strokeWidth=1;shadow=0;dashed=0;align=center;html=1;shape=mxgraph.mockup.buttons.button;strokeColor=#9673a6;mainText=;buttonStyle=round;fontSize=17;fontStyle=1;fillColor=#e1d5e7;whiteSpace=wrap;" vertex="1" parent="1">
          <mxGeometry x="590" y="603.75" width="50" height="22.5" as="geometry" />
        </mxCell>
        <mxCell id="iOdEwq1WsNc-iahHYhRR-13" value="&lt;font style=&quot;font-size: 12px ; font-weight: normal&quot;&gt;Add&lt;/font&gt;" style="strokeWidth=1;shadow=0;dashed=0;align=center;html=1;shape=mxgraph.mockup.buttons.button;strokeColor=#9673a6;mainText=;buttonStyle=round;fontSize=17;fontStyle=1;fillColor=#e1d5e7;whiteSpace=wrap;" vertex="1" parent="1">
          <mxGeometry x="870" y="605" width="50" height="22.5" as="geometry" />
        </mxCell>
      </root>
    </mxGraphModel>
  </diagram>
</mxfile>
